<svg width="2048" height="2048" viewBox="0 0 2048 2048" fill="none" xmlns="http://www.w3.org/2000/svg">
<path d="M1024 234L1708.16 629V1419L1024 1814L339.84 1419V629L1024 234Z" fill="#D3E97A"/>
<path d="M1674.16 648.63V1399.37L1024 1774.74L373.84 1399.37V648.63L1024 273.26L1674.16 648.63Z" stroke="#020202" stroke-opacity="0.54" stroke-width="68"/>
<path d="M1024 620L1161.73 834.431L1408.23 899.157L1246.85 1096.41L1261.47 1350.84L1024 1258.32L786.535 1350.84L801.148 1096.41L639.773 899.157L886.27 834.431L1024 620Z" fill="#BFE522"/>
<path d="M1154.16 839.295L1156.05 842.245L1159.44 843.136L1392.39 904.303L1239.89 1090.71L1237.67 1093.42L1237.87 1096.92L1251.68 1337.37L1027.27 1249.93L1024 1248.66L1020.73 1249.93L796.322 1337.37L810.134 1096.92L810.335 1093.42L808.114 1090.71L655.611 904.303L888.556 843.136L891.947 842.245L893.843 839.295L1024 636.653L1154.16 839.295Z" stroke="black" stroke-opacity="0.49" stroke-width="18"/>
<path d="M1010.8 980.272L810.34 765.868C797.329 751.951 774 761.158 774 780.21V945.082C774 950.355 775.984 955.436 779.558 959.314L1010.7 1210.09C1019.06 1219.17 1033.42 1219.11 1041.71 1209.95L1268.57 959.283C1272.06 955.421 1274 950.399 1274 945.191V780.926C1274 761.782 1250.48 752.622 1237.53 766.724L1041.61 980.132C1033.34 989.14 1019.15 989.204 1010.8 980.272Z" fill="#D3E97A" stroke="black" stroke-opacity="0.69" stroke-width="14"/>
</svg>
